<svg width="125" height="62" viewBox="0 0 125 62" fill="none" xmlns="http://www.w3.org/2000/svg">
<path d="M5.586 21.566H0.462V15.98H18.228V21.566H13.146V50H5.586V21.566ZM32.7311 50.504C30.1831 50.504 28.1671 50.098 26.6831 49.286C25.1991 48.446 24.1491 47.228 23.5331 45.632C22.9451 44.008 22.6511 41.95 22.6511 39.458V15.98H30.0851V40.592C30.0851 41.964 30.2531 43.056 30.5891 43.868C30.9531 44.68 31.6671 45.086 32.7311 45.086C33.7951 45.086 34.4951 44.68 34.8311 43.868C35.1671 43.056 35.3351 41.964 35.3351 40.592V15.98H42.8111V39.458C42.8111 41.95 42.5031 44.008 41.8871 45.632C41.2711 47.228 40.2211 48.446 38.7371 49.286C37.2811 50.098 35.2791 50.504 32.7311 50.504ZM49.2745 15.98H58.6405C62.3645 15.98 65.1785 16.638 67.0825 17.954C68.9865 19.27 69.9385 21.608 69.9385 24.968C69.9385 27.236 69.6445 29.042 69.0565 30.386C68.4685 31.73 67.3765 32.78 65.7805 33.536L70.4425 50H62.6725L58.9345 34.754H56.7925V50H49.2745V15.98ZM58.8925 30.428C60.4045 30.428 61.4545 30.036 62.0425 29.252C62.6585 28.44 62.9665 27.236 62.9665 25.64C62.9665 24.1 62.6865 22.952 62.1265 22.196C61.5665 21.412 60.6005 21.02 59.2285 21.02H56.7925V30.428H58.8925Z" fill="white"/>
<path d="M76.1381 15.98H85.0001C87.2121 15.98 89.0881 16.218 90.6281 16.694C92.1961 17.142 93.4561 18.024 94.4081 19.34C95.3601 20.656 95.8361 22.504 95.8361 24.884C95.8361 26.9 95.4021 28.468 94.5341 29.588C93.6661 30.708 92.4341 31.422 90.8381 31.73C92.7981 31.982 94.2961 32.808 95.3321 34.208C96.3681 35.608 96.8861 37.512 96.8861 39.92C96.8861 46.64 93.4561 50 86.5961 50H76.1381V15.98ZM85.1261 29.588C86.7221 29.588 87.8001 29.224 88.3601 28.496C88.9481 27.768 89.2421 26.634 89.2421 25.094C89.2421 23.75 88.8781 22.742 88.1501 22.07C87.4221 21.37 86.3581 21.02 84.9581 21.02H83.6561V29.588H85.1261ZM85.2521 44.75C86.8481 44.75 87.9681 44.358 88.6121 43.574C89.2841 42.762 89.6201 41.502 89.6201 39.794C89.6201 37.862 89.2841 36.504 88.6121 35.72C87.9681 34.936 86.8341 34.544 85.2101 34.544H83.6561V44.75H85.2521ZM112.254 50.504C108.586 50.504 105.968 49.566 104.4 47.69C102.832 45.786 102.048 42.986 102.048 39.29V26.648C102.048 22.952 102.832 20.18 104.4 18.332C105.968 16.456 108.586 15.518 112.254 15.518C115.95 15.518 118.582 16.456 120.15 18.332C121.746 20.208 122.544 22.98 122.544 26.648V39.29C122.544 42.986 121.746 45.786 120.15 47.69C118.582 49.566 115.95 50.504 112.254 50.504ZM112.254 45.17C113.318 45.17 114.018 44.82 114.354 44.12C114.69 43.392 114.858 42.412 114.858 41.18V24.8C114.858 23.54 114.69 22.56 114.354 21.86C114.018 21.16 113.318 20.81 112.254 20.81C111.246 20.81 110.574 21.174 110.238 21.902C109.902 22.602 109.734 23.568 109.734 24.8V41.18C109.734 42.412 109.888 43.392 110.196 44.12C110.504 44.82 111.19 45.17 112.254 45.17Z" fill="#F7452D"/>
</svg>
